<?xml version="1.0" encoding="utf-8"?>
<!-- Generator: Adobe Illustrator 23.0.1, SVG Export Plug-In . SVG Version: 6.00 Build 0)  -->
<svg version="1.1" id="Layer_1" xmlns="http://www.w3.org/2000/svg" xmlns:xlink="http://www.w3.org/1999/xlink" x="0px" y="0px"
	 viewBox="0 0 612 792" style="enable-background:new 0 0 612 792;" xml:space="preserve">
<style type="text/css">
	.st0{fill:url(#SVGID_1_);}
	.st1{fill:url(#SVGID_2_);}
	.st2{fill:url(#SVGID_3_);}
	.st3{fill:url(#SVGID_4_);}
	.st4{fill:url(#SVGID_5_);}
</style>
<g>
	<g>
		<radialGradient id="SVGID_1_" cx="311.3463" cy="385.7315" r="90.4472" gradientUnits="userSpaceOnUse">
			<stop  offset="0" style="stop-color:#E5E2DF"/>
			<stop  offset="0" style="stop-color:#F1EFEE"/>
			<stop  offset="0" style="stop-color:#FFFFFF"/>
			<stop  offset="0.1259" style="stop-color:#F0F0F1"/>
			<stop  offset="0.3664" style="stop-color:#C9CACB"/>
			<stop  offset="0.5225" style="stop-color:#ADAEB0"/>
			<stop  offset="0.6029" style="stop-color:#A3A5A7"/>
			<stop  offset="0.7382" style="stop-color:#898D90"/>
			<stop  offset="0.9108" style="stop-color:#5F6769"/>
			<stop  offset="1" style="stop-color:#465053"/>
		</radialGradient>
		<path class="st0" d="M299.93,363.21c0-0.3,0-0.6,0-0.9c-0.06-12.93-0.18-25.87-0.16-38.8c0.02-10.78,0.02-21.57,0.4-32.35
			c0.2-5.62,0.53-11.29,4.4-16.6c0.66-0.91,1.43-1.81,2.31-2.66c1.86-1.8,3.69-1.78,5.41,0.03c3.17,3.34,5.12,6.94,6.14,10.7
			c1.52,5.64,1.42,11.34,1.52,17.03c0.3,17.03,0.31,34.05,0.68,51.08c0.26,12.13,0.34,24.26,0.46,36.4
			c0.15,15.43,0.34,30.85,0.52,46.28c0.03,2.4,0.19,4.79,0.13,7.18c-0.03,1.31,0.94,1.83,3.06,2.08c8.61,0.99,17.3,0.93,26,0.84
			c3.19-0.03,6.55,0.37,9.01-1.35c0.19-0.13,0.63-0.2,0.94-0.19c2.81,0.08,3.84,1.49,5.29,2.53c1.11,0.79,1.38,1.7,0.06,2.58
			c-0.62,0.41-1.19,0.85-1.78,1.27c-1.31,0.94-2.78,1.17-4.31,0.23c-1.08-0.67-2.4-0.94-3.87-0.96c-7.84-0.1-15.69-0.6-23.52-0.16
			c-4.22,0.24-8.41,0.76-12.58,1.24c-2.04,0.23-2.47,1.26-2.54,2.31c-0.24,3.84-0.64,7.68-0.64,11.52c0,8.14,0.31,16.27-0.68,24.4
			c-0.27,2.17,0.31,4.33,1.8,6.43c2.22,3.13,1.53,4.22-3.12,6.19c-0.21,0.09-0.44,0.16-0.62,0.26c-2.52,1.46-2.53,1.47-4.99,0
			c-6.45-3.86-6.98-2.97-4.05-8.58c1.83-3.5,1.02-7.15,0.79-10.72c-0.6-9.57-1.83-19.13-1.48-28.72c0.01-0.25,0.01-0.5-0.03-0.75
			c-0.3-2.42-0.41-2.47-4.48-3.03c-10.09-1.39-20.31-1.16-30.54-0.88c-1.19,0.03-2.39,0.07-3.58,0.03
			c-1.22-0.04-2.16,0.11-2.69,0.83c-0.43,0.59-1.39,0.9-2.29,0.61c-2.17-0.7-4.28-1.61-5.01-3.03c-0.66-1.28,0.15-2.54,1.92-3.51
			c1.54-0.85,3.08-1.06,4.67-0.1c1.15,0.69,2.54,0.98,4.13,1.01c9.37,0.17,18.74,0.61,28.08-0.28c0.84-0.08,1.68-0.18,2.53-0.21
			c2.12-0.09,2.9-0.73,2.89-1.96c-0.03-3.79,0.14-7.59,0.13-11.38c-0.06-21.62-0.16-43.24-0.24-64.87c0-0.35,0-0.7,0-1.05
			C299.99,363.21,299.96,363.21,299.93,363.21z"/>
		<radialGradient id="SVGID_2_" cx="310.9932" cy="435.7708" r="4.1013" gradientUnits="userSpaceOnUse">
			<stop  offset="0" style="stop-color:#E5E2DF"/>
			<stop  offset="0" style="stop-color:#F1EFEE"/>
			<stop  offset="0" style="stop-color:#FFFFFF"/>
			<stop  offset="0.1259" style="stop-color:#F0F0F1"/>
			<stop  offset="0.3664" style="stop-color:#C9CACB"/>
			<stop  offset="0.5225" style="stop-color:#ADAEB0"/>
			<stop  offset="0.6029" style="stop-color:#A3A5A7"/>
			<stop  offset="0.7382" style="stop-color:#898D90"/>
			<stop  offset="0.9108" style="stop-color:#5F6769"/>
			<stop  offset="1" style="stop-color:#465053"/>
		</radialGradient>
		<path class="st1" d="M310.87,441.57c0-3.87,0-7.73,0-11.6c0.08,0,0.17,0,0.25,0c0,3.86,0,7.73,0,11.59
			C311.04,441.57,310.95,441.57,310.87,441.57z"/>
		<radialGradient id="SVGID_3_" cx="310.9947" cy="425.1682" r="2.9297" gradientUnits="userSpaceOnUse">
			<stop  offset="0" style="stop-color:#E5E2DF"/>
			<stop  offset="0" style="stop-color:#F1EFEE"/>
			<stop  offset="0" style="stop-color:#FFFFFF"/>
			<stop  offset="0.1259" style="stop-color:#F0F0F1"/>
			<stop  offset="0.3664" style="stop-color:#C9CACB"/>
			<stop  offset="0.5225" style="stop-color:#ADAEB0"/>
			<stop  offset="0.6029" style="stop-color:#A3A5A7"/>
			<stop  offset="0.7382" style="stop-color:#898D90"/>
			<stop  offset="0.9108" style="stop-color:#5F6769"/>
			<stop  offset="1" style="stop-color:#465053"/>
		</radialGradient>
		<path class="st2" d="M310.88,429.31c0-2.76,0-5.52,0-8.28c0.08,0,0.15,0,0.23,0c0,2.74,0,5.48,0,8.22
			C311.03,429.27,310.96,429.29,310.88,429.31z"/>
		<radialGradient id="SVGID_4_" cx="319.7046" cy="377.9199" r="2.3988" gradientUnits="userSpaceOnUse">
			<stop  offset="0" style="stop-color:#E5E2DF"/>
			<stop  offset="0" style="stop-color:#F1EFEE"/>
			<stop  offset="0" style="stop-color:#FFFFFF"/>
			<stop  offset="0.1259" style="stop-color:#F0F0F1"/>
			<stop  offset="0.3664" style="stop-color:#C9CACB"/>
			<stop  offset="0.5225" style="stop-color:#ADAEB0"/>
			<stop  offset="0.6029" style="stop-color:#A3A5A7"/>
			<stop  offset="0.7382" style="stop-color:#898D90"/>
			<stop  offset="0.9108" style="stop-color:#5F6769"/>
			<stop  offset="1" style="stop-color:#465053"/>
		</radialGradient>
		<path class="st3" d="M319.99,374.64c0,2.22,0,4.44,0,6.66c-0.77-2.21-0.59-4.43-0.45-6.65
			C319.68,374.51,319.83,374.5,319.99,374.64z"/>
		<radialGradient id="SVGID_5_" cx="319.7995" cy="373.6315" r="0.7441" gradientUnits="userSpaceOnUse">
			<stop  offset="0" style="stop-color:#E5E2DF"/>
			<stop  offset="0" style="stop-color:#F1EFEE"/>
			<stop  offset="0" style="stop-color:#FFFFFF"/>
			<stop  offset="0.1259" style="stop-color:#F0F0F1"/>
			<stop  offset="0.3664" style="stop-color:#C9CACB"/>
			<stop  offset="0.5225" style="stop-color:#ADAEB0"/>
			<stop  offset="0.6029" style="stop-color:#A3A5A7"/>
			<stop  offset="0.7382" style="stop-color:#898D90"/>
			<stop  offset="0.9108" style="stop-color:#5F6769"/>
			<stop  offset="1" style="stop-color:#465053"/>
		</radialGradient>
		<path class="st4" d="M319.99,374.64c-0.15,0-0.3,0.01-0.45,0.01c0-0.53,0-1.07,0-2.04C320.11,373.56,320.11,374.09,319.99,374.64z
			"/>
	</g>
</g>
</svg>
