<?xml version="1.0" encoding="utf-8"?>
<!-- Generator: Adobe Illustrator 23.0.1, SVG Export Plug-In . SVG Version: 6.00 Build 0)  -->
<svg version="1.1" id="Layer_1" xmlns="http://www.w3.org/2000/svg" xmlns:xlink="http://www.w3.org/1999/xlink" x="0px" y="0px"
	 viewBox="0 0 612 792" style="enable-background:new 0 0 612 792;" xml:space="preserve">
<style type="text/css">
	.st0{fill:url(#SVGID_1_);}
	.st1{fill:url(#SVGID_2_);}
	.st2{fill:url(#SVGID_3_);}
	.st3{fill:url(#SVGID_4_);}
	.st4{fill:url(#SVGID_5_);}
	.st5{fill:url(#SVGID_6_);}
	.st6{fill:url(#SVGID_7_);}
	.st7{fill:url(#SVGID_8_);}
	.st8{fill:url(#SVGID_9_);}
	.st9{fill:url(#SVGID_10_);}
</style>
<g>
	<g>
		
			<radialGradient id="SVGID_1_" cx="272.1894" cy="393.8651" r="173.8288" gradientTransform="matrix(1 0 0 -1 0 792)" gradientUnits="userSpaceOnUse">
			<stop  offset="0" style="stop-color:#E5E2DF"/>
			<stop  offset="0" style="stop-color:#F1EFEE"/>
			<stop  offset="0" style="stop-color:#FFFFFF"/>
			<stop  offset="0.1259" style="stop-color:#F0F0F1"/>
			<stop  offset="0.3664" style="stop-color:#C9CACB"/>
			<stop  offset="0.5225" style="stop-color:#ADAEB0"/>
			<stop  offset="0.6029" style="stop-color:#A3A5A7"/>
			<stop  offset="0.7382" style="stop-color:#898D90"/>
			<stop  offset="0.9108" style="stop-color:#5F6769"/>
			<stop  offset="1" style="stop-color:#465053"/>
		</radialGradient>
		<path class="st0" d="M306.78,533.86c-3.45,1.86-7.33,1.96-11.06,2.4c-3.28,0.39-4.35,1.96-4.97,5.01
			c-1.93,9.51-2.05,19.17-2.87,28.78c-1.29,15.11-1.4,30.26-1.16,45.41c0.08,5.3-0.3,10.59,1.52,15.81c1.2,3.44-0.25,6.45-3.41,8.58
			c-3.9,2.63-7.51,1.95-11.06-0.62c-2.98-2.16-3.53-4.85-2.27-8.32c1.55-4.27,2.09-8.83,1.31-13.28c-1.63-9.29,0.9-18.45,0.44-27.69
			c-0.58-11.63-0.76-23.29-1.43-34.92c-0.31-5.46-1.37-10.88-2.05-16.32c-0.34-2.74-2.42-2.75-4.43-3
			c-9.32-1.18-17.83-4.07-24.11-11.59c-0.85-1.02-1.78-2.01-2.42-3.15c-0.96-1.71-2.32-3.85,0.35-5.04c2.58-1.15,3.44,0.53,3.68,3
			c0.18,1.86,1.94,2.47,3.51,3.15c5.71,2.46,11.76,3.48,17.85,4.4c3.02,0.46,3.67-1.06,3.71-3.72c0.2-12.15,0.69-24.3,0.78-36.45
			c0.25-33.48,0.23-66.96,0.55-100.43c0.44-45.96,0.74-91.92,1.79-137.87c0.46-20.13-0.48-40.31,1.64-60.39
			c1.08-10.31,4.23-20.13,7.11-30.02c0.43-1.47,1.13-2.82,3-2.84c2.22-0.03,2.59,1.55,3.04,3.25c3.71,14.04,6.22,28.3,6.3,42.83
			c0.32,57.3,0.41,114.6,0.58,171.9c0,0.66-0.1,1.32-0.15,1.99c-3.4-0.23-3.6-2.96-3.92-5.34c-0.41-3.12-0.13-6.28-0.11-9.76
			c-1.74-0.07-3.42,0.99-5.33,0.54c4.26,1.29,3.62,5.11,3.98,8.04c0.31,2.49-1.84,1.46-3.19,1.09c-1.42,1.18-0.8,2.79-0.8,4.16
			c0.08,30.16-0.42,60.33,0.22,90.48c0.26,12.3,0.46,24.61,0.79,36.91c0.14,5.08-1.07,10.03-0.99,15.08
			c-0.01-1.47,0.02-2.95,0.07-4.42c1.21-1.89,2-0.67,2.22,0.52c0.56,3.07,1.59,6.17,0.7,9.33c-0.49,1.73-0.65,3.19,0.85,4.5
			c1.66,1.45,2.04,5.54,2.83,5.23c4.34-1.67,7.92,2.55,12.05,1.01C303.89,531.33,306.13,530.65,306.78,533.86z"/>
		
			<radialGradient id="SVGID_2_" cx="297.4267" cy="346.19" r="63.3591" gradientTransform="matrix(1 0 0 -1 0 792)" gradientUnits="userSpaceOnUse">
			<stop  offset="0" style="stop-color:#E5E2DF"/>
			<stop  offset="0" style="stop-color:#F1EFEE"/>
			<stop  offset="0" style="stop-color:#FFFFFF"/>
			<stop  offset="0.1259" style="stop-color:#F0F0F1"/>
			<stop  offset="0.3664" style="stop-color:#C9CACB"/>
			<stop  offset="0.5225" style="stop-color:#ADAEB0"/>
			<stop  offset="0.6029" style="stop-color:#A3A5A7"/>
			<stop  offset="0.7382" style="stop-color:#898D90"/>
			<stop  offset="0.9108" style="stop-color:#5F6769"/>
			<stop  offset="1" style="stop-color:#465053"/>
		</radialGradient>
		<path class="st1" d="M306.78,533.86c-1.12-0.44-2.65-1.57-3.27-1.19c-3.01,1.83-5.53,0.55-8.4-0.23c-0.81-0.22-3.8-2.76-4.61,0.98
			c-0.13,0.6-1.43-1.03-2.77-2.99c-4.25-6.24-2.29-13.3-3.13-19.98c-1.06-1.28-0.85-2.83-0.86-4.3
			c-0.33-42.78-0.73-85.55-0.49-128.33c0-0.5,0.06-1,0.1-1.48c0.13-1.66,2.62-3.09,0.5-5.01c-0.12-0.98,0-1.88,0.73-2.62
			c0.48,0.1,1.3,0.41,1.39,0.28c0.89-1.48-1.76-7.29-3.33-7.03c-3.1,0.52-1.28-1.76-1.42-2.48c-0.42-2.15,1.09-0.86,1.75-0.65
			c2.4,0.76,4.43-0.45,6.42-1.07c1.75,5.55-2.28,12.09,3.18,16.93c0.11,2.82,0.31,5.64,0.31,8.45c0.02,34.9-0.04,69.81,0.05,104.71
			c0.03,10.1,0.87,20.19-0.14,30.28c0.19,0.79,0.8,1.77,0.35,2.37c-1.79,2.38-0.44,4.21,0.79,6.12l-0.11-0.11
			c1.4,1.57,3.48,0.61,5.1,1.4c1.05,0.5,2.39,0.8,2.72,1.97c0.51,1.78-1.53,0.78-2.02,1.57c1.98-0.05,2.8-1.22,3.08-3.04
			c0.1-0.64,0.66-1.14,1.03-1.69c0.21-0.31,0.46-0.34,0.74-0.1c2.55-0.03,5.19,0.31,7.26-1.74c0.33-0.06,0.66-0.13,0.99-0.19
			c2.76,2.13,0.53,3.71-0.77,5.07c-1.31,1.36-3.09,2.26-4.22,3.86C307.4,533.71,307.09,533.78,306.78,533.86z"/>
		
			<radialGradient id="SVGID_3_" cx="315.8942" cy="266.4348" r="8.1246" gradientTransform="matrix(1 0 0 -1 0 792)" gradientUnits="userSpaceOnUse">
			<stop  offset="0" style="stop-color:#E5E2DF"/>
			<stop  offset="0" style="stop-color:#F1EFEE"/>
			<stop  offset="0" style="stop-color:#FFFFFF"/>
			<stop  offset="0.1259" style="stop-color:#F0F0F1"/>
			<stop  offset="0.3664" style="stop-color:#C9CACB"/>
			<stop  offset="0.5225" style="stop-color:#ADAEB0"/>
			<stop  offset="0.6029" style="stop-color:#A3A5A7"/>
			<stop  offset="0.7382" style="stop-color:#898D90"/>
			<stop  offset="0.9108" style="stop-color:#5F6769"/>
			<stop  offset="1" style="stop-color:#465053"/>
		</radialGradient>
		<path class="st2" d="M307.72,533.63c-0.1-1.95,0.55-3.18,2.55-4.06c1.81-0.8,3.55-2.29,2.44-4.87c2.53-1.76,6.53-1.7,7.03-6
			c0.18-1.57,1.77-1.25,2.83-0.96c1.7,0.46,1.71,1.82,1.25,3.18c-1.1,3.29-3.71,5.41-6.17,7.57
			C314.8,531,311.6,533.02,307.72,533.63z"/>
		
			<radialGradient id="SVGID_4_" cx="298.7949" cy="262.8748" r="3.9835" gradientTransform="matrix(1 0 0 -1 0 792)" gradientUnits="userSpaceOnUse">
			<stop  offset="0" style="stop-color:#E5E2DF"/>
			<stop  offset="0" style="stop-color:#F1EFEE"/>
			<stop  offset="0" style="stop-color:#FFFFFF"/>
			<stop  offset="0.1259" style="stop-color:#F0F0F1"/>
			<stop  offset="0.3664" style="stop-color:#C9CACB"/>
			<stop  offset="0.5225" style="stop-color:#ADAEB0"/>
			<stop  offset="0.6029" style="stop-color:#A3A5A7"/>
			<stop  offset="0.7382" style="stop-color:#898D90"/>
			<stop  offset="0.9108" style="stop-color:#5F6769"/>
			<stop  offset="1" style="stop-color:#465053"/>
		</radialGradient>
		<path class="st3" d="M303.72,526.72c0.65,5.09-3.34,6.49-7.92,3.33c2.03,0.3,3.36,0.49,4.91,0.71c-1.51-3.09-5.54-1.44-6.91-4.24
			C297.11,526.59,300.41,526.66,303.72,526.72z"/>
		
			<radialGradient id="SVGID_5_" cx="292.5587" cy="269.615" r="3.1501" gradientTransform="matrix(1 0 0 -1 0 792)" gradientUnits="userSpaceOnUse">
			<stop  offset="0" style="stop-color:#E5E2DF"/>
			<stop  offset="0" style="stop-color:#F1EFEE"/>
			<stop  offset="0" style="stop-color:#FFFFFF"/>
			<stop  offset="0.1259" style="stop-color:#F0F0F1"/>
			<stop  offset="0.3664" style="stop-color:#C9CACB"/>
			<stop  offset="0.5225" style="stop-color:#ADAEB0"/>
			<stop  offset="0.6029" style="stop-color:#A3A5A7"/>
			<stop  offset="0.7382" style="stop-color:#898D90"/>
			<stop  offset="0.9108" style="stop-color:#5F6769"/>
			<stop  offset="1" style="stop-color:#465053"/>
		</radialGradient>
		<path class="st4" d="M293.91,526.63c-5.43-2.15-0.97-5.63-1.14-8.49C293.15,520.97,293.53,523.8,293.91,526.63z"/>
		
			<radialGradient id="SVGID_6_" cx="308.09" cy="265.6512" r="2.7663" gradientTransform="matrix(1 0 0 -1 0 792)" gradientUnits="userSpaceOnUse">
			<stop  offset="0" style="stop-color:#E5E2DF"/>
			<stop  offset="0" style="stop-color:#F1EFEE"/>
			<stop  offset="0" style="stop-color:#FFFFFF"/>
			<stop  offset="0.1259" style="stop-color:#F0F0F1"/>
			<stop  offset="0.3664" style="stop-color:#C9CACB"/>
			<stop  offset="0.5225" style="stop-color:#ADAEB0"/>
			<stop  offset="0.6029" style="stop-color:#A3A5A7"/>
			<stop  offset="0.7382" style="stop-color:#898D90"/>
			<stop  offset="0.9108" style="stop-color:#5F6769"/>
			<stop  offset="1" style="stop-color:#465053"/>
		</radialGradient>
		<path class="st5" d="M311.72,524.89c-1.6,3.99-4.36,3.17-7.26,1.74C306.88,526.05,309.3,525.47,311.72,524.89z"/>
		
			<radialGradient id="SVGID_7_" cx="283.2802" cy="349.365" r="54.722" gradientTransform="matrix(1 0 0 -1 0 792)" gradientUnits="userSpaceOnUse">
			<stop  offset="0" style="stop-color:#E5E2DF"/>
			<stop  offset="0" style="stop-color:#F1EFEE"/>
			<stop  offset="0" style="stop-color:#FFFFFF"/>
			<stop  offset="0.1259" style="stop-color:#F0F0F1"/>
			<stop  offset="0.3664" style="stop-color:#C9CACB"/>
			<stop  offset="0.5225" style="stop-color:#ADAEB0"/>
			<stop  offset="0.6029" style="stop-color:#A3A5A7"/>
			<stop  offset="0.7382" style="stop-color:#898D90"/>
			<stop  offset="0.9108" style="stop-color:#5F6769"/>
			<stop  offset="1" style="stop-color:#465053"/>
		</radialGradient>
		<path class="st6" d="M284.56,373.75c0.06,14.13,0.21,28.26,0.16,42.39c-0.1,28.46-0.32,56.91-0.45,85.37
			c-0.01,2.98,0.21,5.96,0.32,8.94c-1.56,3.02,0.2,6.53-1.65,9.56c-0.14-51.51-1.8-103-0.78-154.75c2.64,0.67,1.51,2.57,2.41,3.46
			c0,0.89,0,1.78,0,2.67C284.23,372.17,284.5,372.96,284.56,373.75z"/>
		
			<radialGradient id="SVGID_8_" cx="287.216" cy="430.405" r="1.7698" gradientTransform="matrix(1 0 0 -1 0 792)" gradientUnits="userSpaceOnUse">
			<stop  offset="0" style="stop-color:#E5E2DF"/>
			<stop  offset="0" style="stop-color:#F1EFEE"/>
			<stop  offset="0" style="stop-color:#FFFFFF"/>
			<stop  offset="0.1259" style="stop-color:#F0F0F1"/>
			<stop  offset="0.3664" style="stop-color:#C9CACB"/>
			<stop  offset="0.5225" style="stop-color:#ADAEB0"/>
			<stop  offset="0.6029" style="stop-color:#A3A5A7"/>
			<stop  offset="0.7382" style="stop-color:#898D90"/>
			<stop  offset="0.9108" style="stop-color:#5F6769"/>
			<stop  offset="1" style="stop-color:#465053"/>
		</radialGradient>
		<path class="st7" d="M285.96,359.43c2.47,1.28,3.05,2.25,2.04,4.33C287.34,362.35,286.85,361.3,285.96,359.43z"/>
		
			<radialGradient id="SVGID_9_" cx="285.1898" cy="419.3668" r="1.1455" gradientTransform="matrix(1 0 0 -1 0 792)" gradientUnits="userSpaceOnUse">
			<stop  offset="0" style="stop-color:#E5E2DF"/>
			<stop  offset="0" style="stop-color:#F1EFEE"/>
			<stop  offset="0" style="stop-color:#FFFFFF"/>
			<stop  offset="0.1259" style="stop-color:#F0F0F1"/>
			<stop  offset="0.3664" style="stop-color:#C9CACB"/>
			<stop  offset="0.5225" style="stop-color:#ADAEB0"/>
			<stop  offset="0.6029" style="stop-color:#A3A5A7"/>
			<stop  offset="0.7382" style="stop-color:#898D90"/>
			<stop  offset="0.9108" style="stop-color:#5F6769"/>
			<stop  offset="1" style="stop-color:#465053"/>
		</radialGradient>
		<path class="st8" d="M284.56,373.75c-0.56-0.79-0.5-1.58,0.01-2.37c0.11,1.13,1.96,1.12,1.6,2.47
			C286.15,373.96,285.12,373.79,284.56,373.75z"/>
		
			<radialGradient id="SVGID_10_" cx="290.5732" cy="263.1821" r="1.1161" gradientTransform="matrix(1 0 0 -1 0 792)" gradientUnits="userSpaceOnUse">
			<stop  offset="0" style="stop-color:#E5E2DF"/>
			<stop  offset="0" style="stop-color:#F1EFEE"/>
			<stop  offset="0" style="stop-color:#FFFFFF"/>
			<stop  offset="0.1259" style="stop-color:#F0F0F1"/>
			<stop  offset="0.3664" style="stop-color:#C9CACB"/>
			<stop  offset="0.5225" style="stop-color:#ADAEB0"/>
			<stop  offset="0.6029" style="stop-color:#A3A5A7"/>
			<stop  offset="0.7382" style="stop-color:#898D90"/>
			<stop  offset="0.9108" style="stop-color:#5F6769"/>
			<stop  offset="1" style="stop-color:#465053"/>
		</radialGradient>
		<path class="st9" d="M289.2,529.03c0.9-0.39,1.62-0.72,2.36-0.99c0.05-0.02,0.44,0.53,0.38,0.61
			C291.3,529.55,290.53,530.05,289.2,529.03z"/>
	</g>
</g>
</svg>
