<?xml version="1.0" encoding="utf-8"?>
<!-- Generator: Adobe Illustrator 23.0.1, SVG Export Plug-In . SVG Version: 6.00 Build 0)  -->
<svg version="1.1" id="Layer_1" xmlns="http://www.w3.org/2000/svg" xmlns:xlink="http://www.w3.org/1999/xlink" x="0px" y="0px"
	 viewBox="0 0 612 792" style="enable-background:new 0 0 612 792;" xml:space="preserve">
<style type="text/css">
	.st0{fill:url(#SVGID_1_);}
	.st1{fill:url(#SVGID_2_);}
	.st2{fill:url(#SVGID_3_);}
	.st3{fill:url(#SVGID_4_);}
	.st4{fill:url(#SVGID_5_);}
	.st5{fill:url(#SVGID_6_);}
</style>
<g>
	
		<radialGradient id="SVGID_1_" cx="308.9814" cy="395.8061" r="173.6084" gradientTransform="matrix(1 0 0 -1 0 792)" gradientUnits="userSpaceOnUse">
		<stop  offset="0" style="stop-color:#E5E2DF"/>
		<stop  offset="0" style="stop-color:#F1EFEE"/>
		<stop  offset="0" style="stop-color:#FFFFFF"/>
		<stop  offset="0.1259" style="stop-color:#F0F0F1"/>
		<stop  offset="0.3664" style="stop-color:#C9CACB"/>
		<stop  offset="0.5225" style="stop-color:#ADAEB0"/>
		<stop  offset="0.6029" style="stop-color:#A3A5A7"/>
		<stop  offset="0.7382" style="stop-color:#898D90"/>
		<stop  offset="0.9108" style="stop-color:#5F6769"/>
		<stop  offset="1" style="stop-color:#465053"/>
	</radialGradient>
	<path class="st0" d="M312,253.5c0,28.81-0.15,57.63,0.03,86.44c0.3,48.11,3.78,96.11,5.36,144.18c0.17,5.13-1.2,10.33-2.11,15.45
		c-0.38,2.13,0.12,3.07,2.22,3.5c4.6,0.93,8.44,2.9,10.29,7.66c1.17,3.01,4.06,1.67,6.14,1.89c3.41,0.36,6.1,1.25,7.47,4.73
		c0.77,1.96,0.45,3.71-0.85,5.1c-1.35,1.45-3.17,1.68-5.01,0.68c-2.05-1.1-4.14-2.14-6.15-3.3c-1.41-0.81-2.72-1.19-4.15-0.09
		c-1.64,1.27-2.98,1.39-4.73-0.28c-2.9-2.76-4.44-1.2-4.71,2.18c-0.49,6.14-1.12,12.27-1.26,18.42
		c-0.45,19.64-0.69,39.29-1.06,58.93c-0.07,3.66-0.31,7.31-0.54,10.96c-0.21,3.19-0.03,6.04,2.02,8.95c4,5.69-0.15,18.24-6.39,20.52
		c-2.02,0.74-8.5-3.32-9.42-6.71c-1.57-5.77-2.73-11.77,1.56-17.09c0.63-0.78,1.56-1.41,1.33-2.52
		c-3.81-18.31-0.28-36.73-0.82-55.09c-0.33-11.13,0.32-22.29,0.54-33.44c0.09-4.47-1.19-7.11-6.54-6.73
		c-4.27,0.3-8.62-0.52-12.94-0.84c-3.54-0.27-5.27-2.44-6-5.69c-0.41-1.82,0.16-3.25,1.55-4.43c1.48-1.25,2.76-0.39,4.12,0.29
		c5.95,2.98,14.65,1.52,18.85-3.15c0.95-1.06,1.36-2.19,0.77-3.65c-1.49-3.7,0.43-8.36-3.32-11.51c-0.5-0.42-0.2-1.92-0.09-2.9
		c2.81-23.87,2.56-47.87,2.91-71.83c0.51-34.64,0.75-69.3,0.69-103.94c-0.07-39.48-0.53-78.95-0.99-118.43
		c-0.12-10.32-0.99-20.63-0.21-30.94c0.24-3.15-0.28-7.98,4.04-7.94c4.36,0.04,4.4,4.84,4.46,8.23c0.46,25.48,0.77,50.96,1.09,76.44
		c0.07,5.32,0.01,10.64,0.01,15.97C310.79,253.5,311.39,253.5,312,253.5z"/>
	
		<radialGradient id="SVGID_2_" cx="306.4536" cy="394.6972" r="28.7457" gradientTransform="matrix(1 0 0 -1 0 792)" gradientUnits="userSpaceOnUse">
		<stop  offset="0" style="stop-color:#E5E2DF"/>
		<stop  offset="0" style="stop-color:#F1EFEE"/>
		<stop  offset="0" style="stop-color:#FFFFFF"/>
		<stop  offset="0.1259" style="stop-color:#F0F0F1"/>
		<stop  offset="0.3664" style="stop-color:#C9CACB"/>
		<stop  offset="0.5225" style="stop-color:#ADAEB0"/>
		<stop  offset="0.6029" style="stop-color:#A3A5A7"/>
		<stop  offset="0.7382" style="stop-color:#898D90"/>
		<stop  offset="0.9108" style="stop-color:#5F6769"/>
		<stop  offset="1" style="stop-color:#465053"/>
	</radialGradient>
	<path class="st1" d="M306.81,357.04c0.12,14.22,0.24,28.45,0.36,42.67c0.71,12.2,0.15,24.41,0.29,36.61
		c0.01,0.88-0.17,1.65-1.31,1.62c-0.12-20.54-0.25-41.08-0.37-61.62c-0.04-6.44-1.06-12.89,0.27-19.31
		C306.32,356.53,306.57,356.56,306.81,357.04z"/>
	
		<radialGradient id="SVGID_3_" cx="306.9809" cy="364.9692" r="19.324" gradientTransform="matrix(1 0 0 -1 0 792)" gradientUnits="userSpaceOnUse">
		<stop  offset="0" style="stop-color:#E5E2DF"/>
		<stop  offset="0" style="stop-color:#F1EFEE"/>
		<stop  offset="0" style="stop-color:#FFFFFF"/>
		<stop  offset="0.1259" style="stop-color:#F0F0F1"/>
		<stop  offset="0.3664" style="stop-color:#C9CACB"/>
		<stop  offset="0.5225" style="stop-color:#ADAEB0"/>
		<stop  offset="0.6029" style="stop-color:#A3A5A7"/>
		<stop  offset="0.7382" style="stop-color:#898D90"/>
		<stop  offset="0.9108" style="stop-color:#5F6769"/>
		<stop  offset="1" style="stop-color:#465053"/>
	</radialGradient>
	<path class="st2" d="M306.15,437.94c1.51-1.51,0.88-3.42,0.9-5.16c0.08-11.02,0.09-22.04,0.12-33.06
		c1.41,8.09,0.38,16.26,0.64,24.38c0.32,9.97,0.03,19.96,0,29.94c-0.26,0.42-0.51,0.39-0.74-0.02
		C306.66,448.67,305.62,443.35,306.15,437.94z"/>
	
		<radialGradient id="SVGID_4_" cx="307.0504" cy="320.365" r="12.4776" gradientTransform="matrix(1 0 0 -1 0 792)" gradientUnits="userSpaceOnUse">
		<stop  offset="0" style="stop-color:#E5E2DF"/>
		<stop  offset="0" style="stop-color:#F1EFEE"/>
		<stop  offset="0" style="stop-color:#FFFFFF"/>
		<stop  offset="0.1259" style="stop-color:#F0F0F1"/>
		<stop  offset="0.3664" style="stop-color:#C9CACB"/>
		<stop  offset="0.5225" style="stop-color:#ADAEB0"/>
		<stop  offset="0.6029" style="stop-color:#A3A5A7"/>
		<stop  offset="0.7382" style="stop-color:#898D90"/>
		<stop  offset="0.9108" style="stop-color:#5F6769"/>
		<stop  offset="1" style="stop-color:#465053"/>
	</radialGradient>
	<path class="st3" d="M307.07,454.02c0.24,0.07,0.49,0.08,0.74,0.02c0.17,11.75,0.83,23.5-0.71,35.21
		c-1.81-2.17-0.88-4.56-0.67-6.94c0.16-1.75,0.39-3.56-0.27-5.29C306.46,469.36,306.76,461.69,307.07,454.02z"/>
	
		<radialGradient id="SVGID_5_" cx="305.9967" cy="308.8632" r="4.395" gradientTransform="matrix(1 0 0 -1 0 792)" gradientUnits="userSpaceOnUse">
		<stop  offset="0" style="stop-color:#E5E2DF"/>
		<stop  offset="0" style="stop-color:#F1EFEE"/>
		<stop  offset="0" style="stop-color:#FFFFFF"/>
		<stop  offset="0.1259" style="stop-color:#F0F0F1"/>
		<stop  offset="0.3664" style="stop-color:#C9CACB"/>
		<stop  offset="0.5225" style="stop-color:#ADAEB0"/>
		<stop  offset="0.6029" style="stop-color:#A3A5A7"/>
		<stop  offset="0.7382" style="stop-color:#898D90"/>
		<stop  offset="0.9108" style="stop-color:#5F6769"/>
		<stop  offset="1" style="stop-color:#465053"/>
	</radialGradient>
	<path class="st4" d="M306.16,477.02c1.8,3.96,0.25,8.19,0.94,12.23c-2.14,0.02-2.31,0.01-2.17-1.55
		C305.24,484.14,305.74,480.59,306.16,477.02z"/>
	
		<radialGradient id="SVGID_6_" cx="306.5298" cy="440.08" r="3.6638" gradientTransform="matrix(1 0 0 -1 0 792)" gradientUnits="userSpaceOnUse">
		<stop  offset="0" style="stop-color:#E5E2DF"/>
		<stop  offset="0" style="stop-color:#F1EFEE"/>
		<stop  offset="0" style="stop-color:#FFFFFF"/>
		<stop  offset="0.1259" style="stop-color:#F0F0F1"/>
		<stop  offset="0.3664" style="stop-color:#C9CACB"/>
		<stop  offset="0.5225" style="stop-color:#ADAEB0"/>
		<stop  offset="0.6029" style="stop-color:#A3A5A7"/>
		<stop  offset="0.7382" style="stop-color:#898D90"/>
		<stop  offset="0.9108" style="stop-color:#5F6769"/>
		<stop  offset="1" style="stop-color:#465053"/>
	</radialGradient>
	<path class="st5" d="M306.81,357.04l-0.38,0.04l-0.37-0.06c0-3.42,0-6.84,0-10.26C307.29,350.16,307.04,353.6,306.81,357.04z"/>
</g>
</svg>
